<svg xmlns="http://www.w3.org/2000/svg" viewBox="0 0 551.19 486.68"><title>Asset 2</title><g id="Layer_2" data-name="Layer 2"><g id="Layer_1-2" data-name="Layer 1"><path d="M243.46,439.39c-1.31,1-3.23,2.41-3.22,3.63s1.8,3.1,3.2,3.62a70.2,70.2,0,0,0,9.69,2.35c3.58.77,7.21,1.32,10.76,2.21,3.85,1,7.56,1.91,10.15-3,.78,1.31,1.28,2.11,1.74,2.92,4,7.11,6,7.35,13.43,3.71,15.48-7.54,29.53-17.24,42.77-28.08,10.82-8.86,19.64-19.67,27.22-31.39,2.58-4,4.08-8.68,6.18-13,1.51-3.1.13-4.48-2.79-4.66a36.57,36.57,0,0,0-6,.47c-3.63.39-6-.72-7-4.66a7.35,7.35,0,0,0-3.76-4.08c-5.1-2.34-7.29-6.43-8.3-11.62-.79-4-2.32-8-2.73-12C334.56,343,336,340,336,337.11c0-3.07.18-6.72-1.32-9.11-9.25-14.7-7.47-29.35-.68-44.15a52.25,52.25,0,0,1,4.31-7.88c7.05-10.2,16.91-14.74,29.26-14.76,8.64,0,16.86,1,24.5,5.4,1.08.63,3.93.42,4.15-.13.61-1.5,1-4.15.14-5-4.64-4.65-5.45-10.66-7.48-16.46s-6.74-10.93-10.44-16.22c-1.89-2.71-4.14-5.17-6.23-7.75l1.19-1.73c3,.92,6,2.19,9.11,2.65a50.91,50.91,0,0,0,11.69.52c1.44-.12,2.7-2.27,4.77-4.15-4.7-1.22-8.13-2.7-11.65-2.91-9.42-.57-16.07-6.82-23.74-10.95a139.27,139.27,0,0,1-12.1-7.59c-1.05-.71-1.58-2.18-2.34-3.3,1.42-.56,2.81-1.51,4.26-1.61,6-.38,12-.29,17.92-.84,1.83-.16,3.52-1.8,6.59-3.48-2.67-1.12-3.74-1.8-4.89-2-5.52-1.06-11-2.14-16.61-2.88-1.69-.22-3.52.63-5.29,1-3.54.73-6.27.41-6.79-4.14-.2-1.69-1.4-3.28-2.22-4.87-4.15-8-8.92-15.84-12.3-24.2-3-7.33-4.52-15.24-6.37-23a32.21,32.21,0,0,1-.81-9.92c.12-1.47,2.13-2.79,3.27-4.17,1.23,1.51,3.1,2.85,3.56,4.56,1.56,5.9,1.94,12.18,4.05,17.83,3.32,8.85,7.69,17.31,12.12,27a47.29,47.29,0,0,1,3.33-5.06c.79-.9,2.16-2.1,3-1.92s1.95,1.71,2.27,2.84c1.59,5.49-.18,8.21-5.84,9.4,0,6.57,3.12,9.87,9.34,10.15,5.64.26,11.3.5,16.92,1,5.36.51,11.23,5.51,12.12,10.56.23,1.35-1,3.94-2.21,4.36a71.27,71.27,0,0,1-11.35,2.69,30.49,30.49,0,0,1-5.06,0l-.57,2.15c5,3,9.92,5.93,15,8.72a16.85,16.85,0,0,0,2.07-3c.72-1.31,1.27-2.72,1.89-4.09,1.12,1.21,3.35,2.58,3.2,3.58-1,6.25,2.45,6.35,7.35,7.28,6.25,1.19,12.24,4.23,18,7.16,1.58.8,1.95,4,2.87,6.14a41.9,41.9,0,0,1-5.59,1.73c-2.61.44-5.38.12-7.89.81-2.69.73-5.06,2.76-7.76,3.29-2.35.46-4.95-.38-8.3-.74l8.84,15.41c1.63,3.64,3.34,8,5.61,12.08.43.76,3.44.84,4.74.19,5.37-2.68,10.56-5.91,16.9-4.39,4.66,1.12,9.48,2.13,13.73,4.21,4.64,2.28,8.79,5.62,13,8.7a29.51,29.51,0,0,1,11.93,18.36c.9,4.21,4.38,5.38,9,6,6.07.85,13.13-1.7,18.35,4.49,1.88,2.24,6.51,2,8.93,4,8.12,6.78,16.82,13.25,23.38,21.38A56.94,56.94,0,0,1,535.59,351a1.38,1.38,0,0,0,0,.5c5.65,13.17.57,26.86,1.94,40.22.66,6.49,2,12.91,3,19.37.59,3.84,1.08,7.7,1.85,13.25-2.37-1.57-3.92-2.32-5.11-3.45-7.39-7-7.47-16.32-7.43-25.52.05-12.49,1.12-25,.3-37.45a63.47,63.47,0,0,0-11-31.14c-12.11-18-28.78-29-50.66-31.38a23.24,23.24,0,0,0-8.87.69c-12.94,3.9-25.58,8.57-36.61,16.7-.81.59-1.6,1.48-2.5,1.62-11.28,1.84-17,10.58-23.46,18.53a20.17,20.17,0,0,0-2.71,3.54c-2.95,6-8.19,7.2-14.23,7.61-4.72.32-9.34,2-14.05,2.3a19.33,19.33,0,0,1-8.22-1.72c-3.21-1.29-6-3.57-9.26-4.79a6.64,6.64,0,0,0-5.45.62c-1.07.79-1.64,3.42-1.21,4.86,1.21,4,2.77,7.86.17,12-.3.46.44,1.83,1,2.54a36.37,36.37,0,0,0,5.12,5.44c1.57,1.12,3,2.74,4.73,3.27,5.41,1.63,10.93,2.85,16.42,4.24.31-1.41,1.35-3.31.8-4.15-1.81-2.73-4.42-4.94-6.3-7.64-1.28-1.83-1.87-4.14-2.77-6.24l1.67-1c1,1.21,2.47,2.28,2.9,3.67C369,368,377.41,372.36,387,374.81c4.2,1.08,5.21,2.76,4.27,6.56-1.93,7.85-4,15.69-5.55,23.62a18.65,18.65,0,0,0,.75,8.62,108.87,108.87,0,0,0,6.22,16.72c2.71,5.45,5.28,12.53,10,15.07,6.66,3.6,8.72,8.73,12.09,14.51,3.57,6.11,10.63,10.2,16.18,15.14.35.32,1.07.7,1.33.55,6.93-3.91,12.48,1.72,18.47,3.1,6.81,1.56,12.77,1,19.42-.61a138.46,138.46,0,0,1,27.1-3.37c6.27-.22,11.18-2,15.67-6.18a9.08,9.08,0,0,1,5.77-2.2c1.58,0,4.28,1.51,4.44,2.65.21,1.46-1.28,4.26-2.61,4.68-9,2.81-18,5.76-27.2,7.49a224.52,224.52,0,0,1-32,3.85c-7.56.32-15.2-2-22.8-2-11.9,0-18.28-7.67-24.8-15.76-5.89-7.31-11.81-14.62-18.23-21.44-8.58-9.12-14.27-19.8-15.19-32-.66-8.77,1.37-17.8,2.76-26.63.4-2.53,2-4.95-1.08-6.32s-6.94-3.43-9.27.84c-2,3.72-2.8,8.13-4.73,11.92a78.75,78.75,0,0,1-8.4,13.82c-6.45,8-13.32,15.67-20.38,23.13-2.3,2.43-5.82,3.66-8.67,5.61-7.76,5.32-15.43,10.78-23.2,16.08-4.6,3.14-9.33,6.09-15.24,9.93l5.19.47m-46.36-2.24c-1.59-9-8.75-15.83-20-10.67a1.14,1.14,0,0,1-.47.16c-12.06-.63-22.65,4.57-33.31,8.91-8.56,3.49-16.67,8.11-24.86,12.47a163.5,163.5,0,0,0-14.05,8.51c-2.43,1.63-4.33,4-6.67,5.83-1,.72-2.44.75-3.68,1.1.2-1.2,0-2.95.67-3.49a130.06,130.06,0,0,1,12.16-8.46c13.23-7.89,26.4-15.94,40-23.15,4-2.11,9.38-1.56,14.1-2.37M65.6,462.27c-.42-1.74-1.5-4-2.92-4.69-8.7-4-17.43-8.12-26.47-11.24-6.94-2.39-13-6.23-16.56-12-4.39-7.05-7-15.26-10-23.1-1.9-4.94-3.18-10.12-4.74-15.19l2.26-.86c2.05,4.18,4.23,8.3,6.12,12.56,2.48,5.57,4.84,11.2,7,16.88,4.24,11,14,15.15,23.7,19.13,8.41,3.45,17.09,6.27,25.68,9.3,2.91,1,3.86,2.58,2.75,5.71a9,9,0,0,0-.06,5.78m276.09-172.2c0,7.9,6.73,14.08,15.09,13.95,8.2-.12,14.3-5.62,14.33-12.9,0-9.38-6.47-16.25-15.32-16.19C354.89,277.27,348.42,284.21,348.48,292.36Zm71.72-25.3c-5.66-.22-12.08,6-12.38,12s5.41,12.27,11.65,12.59c6.76.34,13.4-5.35,13.73-11.75C433.55,272.82,428.05,267.37,420.2,267.06Z"/><path d="M136.43,7.28c11.94-2.6,24-4.83,36-7.11a8.45,8.45,0,0,1,4.27.23c4.68,1.69,9.23,3.7,13.89,5.44,1.33.5,3.07,1.06,4.23.6,2.44-1,3.87-1,5.27,1.63.39.75,3.24,1,4.42.39,3.33-1.7,4.2-.68,5,2.66.54,2.21,2.6,4.09,4.15,6,1.87,2.28,4,4.36,5.84,6.64.59.73.67,1.85,1.08,2.76,2.48,5.5,2.56,5.51,8.4,1.14-.15,2.83-.34,4.68-.32,6.53a21.92,21.92,0,0,0,.4,6.08c2.16,7.2,4.45,14.38,7.07,21.43A6.24,6.24,0,0,0,240.24,65c5.85,1,11.85,1.13,17.65,2.29,2.75.55,5.36,2.45,7.72,4.17,7.29,5.3,14.15,10.81,16.65,20.31,2.42,9.16,8.51,16.14,16.25,21.33,3.62,2.43,8.15,3.5,12.52,5.29l3.81-5c.73,2.25,1.19,3.68,1.64,5.1a65.66,65.66,0,0,1,2.38,7.7c1.08,5.93,1.91,11.9,2.66,17.88.07.57-1.51,2-1.78,1.85-1.37-.65-3-1.41-3.75-2.62-3.34-5.3-6.4-10.77-9.57-16.18-.25-.43-.41-1-.8-1.24-2.38-1.36-4.81-2.62-7.22-3.91.77,2.3,1.55,4.59,2.3,6.89.94,2.91,1.85,5.82,2.78,8.73-2.59-1.5-5.29-2.83-7.74-4.54-13.59-9.48-27.11-19.06-40.69-28.57a6.76,6.76,0,0,0-2.28-.58l-1.47,1.46,10.42,12.19-.72,1.25c-11.47-2.93-22.82-6.47-34.44-8.64a282.45,282.45,0,0,0-36.43-4.46,343.71,343.71,0,0,0-36.45.48c-12,.64-23.9,2.09-35.85,3.19l-.54-2.18a36.35,36.35,0,0,1,5.82-1.84c7.37-1.11,14.82-1.73,22.12-3.18,2.06-.41,4.94-2.82,5.3-4.72,2.61-13.72,11-23.75,21.77-31.07s23.45-10.63,36.43-4.5c4.25,2,8,5.08,12.08,7.41,1.46.83,3.82,1.74,4.9,1.12a6,6,0,0,0,2.53-4.76c-1.86-16.28-7.34-30.88-20.59-41.55-3.21-2.59-6.11-5.79-9.71-7.58-7.38-3.66-15.14-6.55-22.76-9.73a3.5,3.5,0,0,0-1.94-.33c-15.69,3.43-32.17,3.62-46.91,11-7.48,3.75-16,6.47-22,11.92C87.42,44.8,82.11,64.26,88,86.56c1.14,4.34,2,8.76,3,13.12.4,1.66,1,3.27,2,6.35,2.09-3.53,3.39-5.74,4.7-7.94l1.64.31a68.67,68.67,0,0,1,0,8c-.58,4.91.6,6,5.34,4.52a5,5,0,0,1,4.08.56c-3.26,1.86-6.4,4-9.81,5.54-16,7.21-27,19.8-35.82,34.29a168.4,168.4,0,0,0-14.63,30.44,180.29,180.29,0,0,0-10.8,62.54c0,3.12-.72,5.15-4,6.58a10.63,10.63,0,0,0-5.05,5.73c-3.23,9.22-5.94,18.62-8.85,28a41.62,41.62,0,0,0-1.89,6.1c-.29,1.89.14,3.88.15,5.82,0,2.25.85,5.3-.28,6.61C9.15,312.91,4,324.35,1.16,337c-.65-.32-1.17-.48-1.16-.59q1.08-11.54,2.25-23.06a.86.86,0,0,1,.19-.45c12.21-13.41,9.27-31.74,15.44-47C20.65,259,21.19,250.44,29,246.17c.89-.49,1.38-2.25,1.52-3.48,1.77-14.66,2.76-29.45,5.37-43.95,1.59-8.87,5.67-17.28,8.56-25.91.77-2.31,1.29-4.7,1.91-7.05a9.81,9.81,0,0,1,.68-2.75c4.56-7,9.08-14.07,13.86-20.93a109.38,109.38,0,0,1,7.6-9.08c.64-.74,2-1.1,2.25-1.89C73.19,124,80.33,122.2,85.29,118c2.66-2.27,3.15-7.65,1.45-11.93-7-17.67-9.73-35.54-4.54-54.48,2.85-10.39,9.67-17.25,16.16-25s15.55-9.68,24.06-14.12m79.18,67.7c.08-7.3-3.37-10.92-10.46-11-11-.09-15.71,3.37-15.74,11.49,0,8.78,4.36,13.69,12.24,13.71C197,94.43,201.49,89.89,201.6,80.17Zm40.21-8.07c-4.8.1-9.31,4.27-9.32,8.6,0,4.91,4,9.43,8.41,9.46,4.86,0,9.87-4.77,9.84-9.42A8.41,8.41,0,0,0,241.81,72.1Z"/><path d="M86.27,410.08c-11.21.38-22.29.36-32.24-6.22-5.1-3.37-9.34-11.86-8.59-17.89,1.06-8.59,1.58-17.25,2.7-25.82a44.12,44.12,0,0,1,3-10.42c.37-.94,2.33-1.25,3.57-1.85.38,1.24,1.46,2.81,1.05,3.66-2.71,5.62-.13,9.44,3.69,13.23,10.52,10.44,21.74,19.9,35,26.75,1.44.75,2.5,2.27,4,2.93s3.21,1.13,4.48.68c5-1.74,8.62-1.06,10.21,2.38,1.4,3.05-1.32,9.54-5.26,10.52-5.07,1.26-10.41,1.48-15.64,2A57,57,0,0,1,86.27,410.08Zm-8.26-12c1.76-3.74,3.36-5.72,3.34-7.68,0-1-2.84-2.5-4.58-2.84-7.23-1.41-13.08,1.55-17.7,6.84-.93,1.07-1,3.86-.29,5.23,2.7,5.11,8,6.42,13.06,6.66,9.11.45,18.27.09,27.4-.23a14.73,14.73,0,0,0,6.49-2.12c2.43-1.41,2.07-4.05-.4-4.33-6.44-.75-13-.64-19.49-.93C83.33,398.57,80.83,398.3,78,398.08Z"/><path d="M198.39,369.15c-3,.55-4.16,2.74-2.84,6.57.33,1-.12,3-.87,3.42-4,2.44-2.62,4.69-.13,7.12,1.15,1.13,2.23,2.34,3.57,3.75-7.3-.57-11.53-5.22-12.83-11.72-2.48-12.35-6.33-24.11-17.76-31.65-1.24-.81-1.5-3.65-1.56-5.57-.11-3.49.25-7,.47-10.5.08-1.17.35-2.33.52-3.49,1,.64,2.39,1.06,2.91,2,1.61,2.82,2.82,5.72,7.11,4.55.67-.18,2.15,1.68,2.86,2.83q3.76,6,7.21,12.25c2,3.62,3.77,7.38,5.77,11C194.61,362.94,196.58,366.09,198.39,369.15Z"/><path d="M72.34,267.45c4.65,2.24,9.69,3.9,13.81,6.85a53,53,0,0,1,11.29,11.38c1.2,1.61.68,5.29-.27,7.51-1.25,2.94-4.09,4.25-6.74,1.24-6.57-7.44-14.21-11.68-24.57-10.2-1.5.22-4-2.07-4.91-3.78-.57-1,.45-3.73,1.59-4.73,2.19-1.93,5.12-3,7.46-4.83C71.22,270,71.84,268.23,72.34,267.45Z"/><path d="M227.25,341.43a33.45,33.45,0,0,1-2.19-4.95c-3.07-11.56-6.17-23.22-13.34-33-5-6.76-11.14-12.62-16.62-19-1.1-1.29-1.48-3.2-2.2-4.82,2,.24,4.69-.26,5.78.85a234.21,234.21,0,0,1,15.9,17.72c7.15,8.95,11.1,19.56,13.91,30.52,1,3.91.6,8.19.84,12.3Z"/><path d="M496.21,462.42c2.12-.77,3.87-1.88,5.68-2,11.92-.65,21.93-5.89,31.18-12.84,2.2-1.65,3.73-4.15,5.78-6a8.32,8.32,0,0,1,3.91-1.95c.88-.17,2,.72,3,1.13a8.15,8.15,0,0,1-1.22,2.45,35.14,35.14,0,0,1-4.33,3.34c-6.65,4.53-14,8.32-19.76,13.76-3.73,3.52-7.34,5.94-12.11,6.76C503.78,467.86,499.36,467.72,496.21,462.42Z"/><path d="M76.13,220.45c13.69-6.13,25.51-2.71,37.07,2.94a32.27,32.27,0,0,1,7.06,4.64c.95.83,1,2.71,1.42,4.12-1.5-.11-3.51.37-4.45-.42-7.74-6.52-17.22-8.38-26.68-10.14C86.23,220.78,81.74,220.86,76.13,220.45Z"/><path d="M253.16,293.88c-.56-.22-1.33-.3-1.69-.72-4.45-5.26-8.91-10.53-13.22-15.91-1.72-2.15-1.58-4.7,1.05-5.79,1-.41,3.28,1,4.35,2.19,2.66,2.91,4.79,6.29,7.44,9.2C255,287.18,255.57,289.13,253.16,293.88Z"/><path d="M59.67,420.78c-6.79,3.53-13.62.81-15.71-6Z"/><path d="M551.19,427.62c-2.58,1.92-4.06,3.26-5.78,4.08-.32.15-2.53-2.12-2.32-2.71a8.21,8.21,0,0,1,3.18-4.12C546.89,424.51,548.69,426.16,551.19,427.62Z"/><path d="M367.58,167.21a30,30,0,0,1-4.56,1.11,28.27,28.27,0,0,1-4.59-.33c-.05,0-.09-1.61.1-1.67a15.74,15.74,0,0,1,4.6-.92C364.19,165.41,365.24,166.21,367.58,167.21Z"/></g></g></svg>